:SAMPLES-PER-SECOND 30
:FULLY-SPECIFIED
:DEGREES
353
root  -10.9554 38.4021 12.3528 -170.436 74.8458 -173.863
RightUpLeg  -14.289 -4.83143 -12.7938
RightLeg  18.6726 1.28338 0.284518
RightFoot  -3.72631 -2.21547 32.1198
RightToes  2.32829e-010 0 -3.6325e-017
Spine  7.47208 2.49512 2.2423
Spine1  21.6746 5.79281 -7.16468
HEad  -28.558 44.5179 -27.4638
LeftShoulder1  1.01836 -1.9222 -11.636
LeftArm  21.3177 9.61362 -65.7102
LeftForeArm  52.1845 -77.7013 -56.5316
LeftHand  -4.04619 -5.59154 41.309
RightShoulder  0.450089 -0.183684 5.84617
RightArm  0.690042 1.5488 62.4718
RightForeArm  96.7811 74.3678 132.652
RightHand  -0.849057 2.48509 -12.6934
LeftUpLeg  -23.3388 0.386213 18.105
LeftLeg  36.1468 6.18409 5.1886
LeftFoot  2.78434 1.77342 -14.2965
LeftToes  -5.54824e-011 -8.71001e-011 8.3852e-012
354
root  -11.1491 38.2335 12.0788 -160.728 81.8041 -166.737
RightUpLeg  -19.742 -5.47954 -13.6503
RightLeg  18.8051 10.4106 3.76549
RightFoot  -3.96779 -2.51343 37.3421
RightToes  2.32829e-010 0 -3.6325e-017
Spine  6.37862 3.13404 2.18836
Spine1  19.4586 7.06881 -9.3432
HEad  -29.1149 46.549 -29.0411
LeftShoulder1  1.25329 -3.39317 -10.9323
LeftArm  20.6566 9.35757 -66.0642
LeftForeArm  54 -77.8343 -56.9355
LeftHand  -4.43343 -6.34637 42.247
RightShoulder  0.430345 -0.167033 5.08993
RightArm  -1.64035 2.64263 62.2342
RightForeArm  95.0196 76.2469 124.602
RightHand  -1.06072 3.58876 -13.8922
LeftUpLeg  -21.5071 0.66249 19.567
LeftLeg  31.4583 8.75469 6.10507
LeftFoot  2.15143 2.43859 -20.7392
LeftToes  -5.54824e-011 -8.71001e-011 8.3852e-012
355
root  -11.263 37.8277 11.7008 -155.31 88.6262 -161.718
RightUpLeg  -23.6672 -2.90647 -16.1967
RightLeg  21.5512 10.3814 4.22081
RightFoot  -4.92811 -2.19397 37.2448
RightToes  2.32829e-010 0 -3.6325e-017
Spine  6.32706 3.06578 0.648813
Spine1  17.7476 6.80902 -9.52357
HEad  -28.8157 49.7821 -31.3561
LeftShoulder1  1.4332 -4.17117 -11.5209
LeftArm  17.3249 4.96921 -65.9993
LeftForeArm  55.5559 -77.8819 -56.2638
LeftHand  -4.62771 -6.63193 42.9759
RightShoulder  0.426463 -0.225954 5.22665
RightArm  -3.53893 3.55539 62.7287
RightForeArm  80.2819 78.6425 102.037
RightHand  -1.42429 4.97727 -16.1181
LeftUpLeg  -17.5355 2.83212 19.2449
LeftLeg  30.0073 9.67248 6.34745
LeftFoot  -2.52221 2.20252 -27.9246
LeftToes  -5.54824e-011 -8.71001e-011 8.3852e-012
356
root  -11.3784 37.2784 11.3792 -1.58784 85.9684 -5.50925
RightUpLeg  -24.5485 1.46084 -20.2541
RightLeg  25.4764 2.88576 1.253
RightFoot  -3.70679 -2.21899 32.1843
RightToes  2.32829e-010 0 -3.6325e-017
Spine  8.23641 2.09447 -2.72595
Spine1  16.6199 4.34844 -6.78783
HEad  -28.5317 53.2115 -34.4359
LeftShoulder1  1.41468 -3.67979 -12.646
LeftArm  11.9669 -3.84868 -64.6784
LeftForeArm  47.8912 -76.2898 -46.8469
LeftHand  -4.57751 -6.46263 43.0997
RightShoulder  0.462824 -0.190088 6.29748
RightArm  -6.36768 3.15238 64.2668
RightForeArm  43.4922 77.5528 61.4722
RightHand  -1.81684 5.93232 -18.7885
LeftUpLeg  -12.8922 7.64242 17.9606
LeftLeg  31.455 8.22865 5.73897
LeftFoot  -8.98436 0.71058 -30.0938
LeftToes  -5.54824e-011 -8.71001e-011 8.3852e-012
357
root  -11.5149 36.5658 11.2026 11.6287 83.3163 11.8696
RightUpLeg  -22.9987 4.7618 -24.2787
RightLeg  29.5879 -0.622256 -0.551943
RightFoot  -1.86952 -2.58381 30.2688
RightToes  2.32829e-010 0 -3.6325e-017
Spine  11.2811 0.690797 -7.15002
Spine1  16.1267 0.332233 -1.7929
HEad  -27.6403 54.6346 -36.8004
LeftShoulder1  1.21096 -2.69152 -12.4529
LeftArm  4.97059 -14.8483 -61.7219
LeftForeArm  31.1556 -70.5093 -30.6653
LeftHand  -4.44312 -6.15115 42.9787
RightShoulder  0.557087 0.155909 7.71951
RightArm  -11.5868 0.366563 65.4622
RightForeArm  13.6883 70.4756 33.5143
RightHand  -1.99109 5.88557 -20.6038
LeftUpLeg  -9.79255 11.1258 17.4287
LeftLeg  36.0859 6.19467 5.2155
LeftFoot  -13.7727 -0.532708 -28.396
LeftToes  -5.54824e-011 -8.71001e-011 8.3852e-012
358
root  -11.4979 35.7374 11.0781 10.6131 80.9139 14.3477
RightUpLeg  -21.6735 6.13463 -26.7427
RightLeg  32.7589 4.01696 2.57106
RightFoot  -4.00909 -2.27003 34.3412
RightToes  2.32829e-010 0 -3.6325e-017
Spine  13.1506 -0.556887 -10.5382
Spine1  15.8929 -3.65238 3.99272
HEad  -24.542 53.6331 -37.4065
LeftShoulder1  0.954738 -1.78905 -10.7837
LeftArm  -3.24862 -23.0008 -56.7178
LeftForeArm  18.332 -60.8259 -18.7899
LeftHand  -4.42167 -5.99374 43.3242
RightShoulder  0.659299 0.505463 9.10731
RightArm  -17.4545 -3.6104 64.4713
RightForeArm  -2.62562 59.9633 20.2548
RightHand  -1.9947 5.50771 -21.3144
LeftUpLeg  -8.32867 11.3534 17.6363
LeftLeg  42.6633 5.70719 6.04481
LeftFoot  -16.4989 -1.18392 -27.8346
LeftToes  -5.54824e-011 -8.71001e-011 8.3852e-012
359
root  -11.1775 34.9213 10.9211 2.77803 75.6113 8.04305
RightUpLeg  -23.4145 7.43986 -26.7677
RightLeg  35.5717 10.3888 7.64885
RightFoot  -9.06251 -0.856476 37.8281
RightToes  2.32829e-010 0 -3.6325e-017
Spine  12.9472 -1.40097 -11.784
Spine1  15.0493 -6.38328 9.51926
HEad  -20.2261 51.9171 -37.5729
LeftShoulder1  0.71101 -0.756047 -9.30466
LeftArm  -11.8889 -24.0024 -49.4619
LeftForeArm  14.4004 -52.7081 -13.508
LeftHand  -4.4966 -5.9897 44.0019
RightShoulder  0.739669 0.70652 10.3592
RightArm  -20.7551 -7.57524 60.5625
RightForeArm  -10.0204 48.1991 13.185
RightHand  -2.28705 6.11065 -23.0392
LeftUpLeg  -6.26505 11.6792 18.5272
LeftLeg  48.2442 6.63904 8.35726
LeftFoot  -19.7748 -2.13631 -29.8298
LeftToes  -5.54824e-011 -8.71001e-011 8.3852e-012
360
root  -10.7069 34.2385 10.7948 -3.92146 67.5349 1.19862
RightUpLeg  -27.8387 9.86925 -24.6045
RightLeg  38.2192 12.8346 10.377
RightFoot  -12.4745 0.29181 37.208
RightToes  2.32829e-010 0 -3.6325e-017
Spine  11.9036 -1.91523 -11.5725
Spine1  13.9196 -8.15087 14.6174
HEad  -17.7591 50.0711 -38.4132
LeftShoulder1  0.511715 0.412197 -9.16455
LeftArm  -19.6056 -17.8205 -41.2813
LeftForeArm  15.8657 -51.4545 -12.8627
LeftHand  -4.50315 -5.96427 44.1523
RightShoulder  0.875365 1.30671 11.0658
RightArm  -21.0421 -11.9523 54.6942
RightForeArm  -12.3862 38.9513 9.70684
RightHand  -2.81549 7.04573 -26.1698
LeftUpLeg  -3.22248 13.1835 19.9054
LeftLeg  51.7896 8.86047 12.3329
LeftFoot  -24.0018 -3.45378 -31.6978
LeftToes  -5.54824e-011 -8.71001e-011 8.3852e-012
361
root  -10.3942 33.703 10.7235 -7.84322 60.6092 -3.40891
RightUpLeg  -31.9856 12.4212 -21.7708
RightLeg  40.4964 12.6779 11.1166
RightFoot  -13.1927 0.499794 35.3643
RightToes  2.32829e-010 0 -3.6325e-017
Spine  11.7086 -2.28884 -11.6959
Spine1  13.9639 -10.2509 20.1613
HEad  -18.6757 46.6525 -39.0042
LeftShoulder1  0.342049 1.5307 -10.0174
LeftArm  -25.7869 -8.53209 -34.3035
LeftForeArm  18.8476 -57.2215 -16.0851
LeftHand  -4.24857 -5.80104 42.419
RightShoulder  1.15877 2.73013 11.4594
RightArm  -20.2322 -17.9844 48.362
RightForeArm  -13.0587 35.7912 8.80656
RightHand  -2.98167 7.21323 -27.2723
LeftUpLeg  -1.51239 13.1364 20.9268
LeftLeg  55.1168 11.4325 17.5288
LeftFoot  -26.7814 -4.21901 -31.564
LeftToes  -5.54824e-011 -8.71001e-011 8.3852e-012
